<svg xmlns="http://www.w3.org/2000/svg">
<defs>

<symbol id="custom-clock" height="24" viewBox="0 0 24 24" width="24">
<path fill="currentColor" d="M11,6V14L7.5,10.5L6.08,11.92L12,17.84L17.92,11.92L16.5,10.5L13,14V6H11M12,22A10,10 0 0,1 2,12A10,10 0 0,1 12,2A10,10 0 0,1 22,12A10,10 0 0,1 12,22Z" />
</symbol>

<symbol id="amplifier" height="24" viewBox="0 0 24 24" width="24">
 <path fill="currentColor" d="M10,2H14A1,1 0 0,1 15,3H21V21H19A1,1 0 0,1 18,22A1,1 0 0,1 17,21H7A1,1 0 0,1 6,22A1,1 0 0,1 5,21H3V3H9A1,1 0 0,1 10,2M5,5V9H19V5H5M7,6A1,1 0 0,1 8,7A1,1 0 0,1 7,8A1,1 0 0,1 6,7A1,1 0 0,1 7,6M12,6H14V7H12V6M15,6H16V8H15V6M17,6H18V8H17V6M12,11A4,4 0 0,0 8,15A4,4 0 0,0 12,19A4,4 0 0,0 16,15A4,4 0 0,0 12,11M10,6A1,1 0 0,1 11,7A1,1 0 0,1 10,8A1,1 0 0,1 9,7A1,1 0 0,1 10,6Z" />
</symbol>

<symbol id="console-line" height="24" viewBox="0 0 24 24" width="24">
<!-- <path d="M0 0h24v24H0z" stroke-width="1" color="red"/> -->
<path fill="currentColor" d="M13,19V16H21V19H13M8.5,13L2.47,7H6.71L11.67,11.95C12.25,12.54 12.25,13.5 11.67,14.07L6.74,19H2.5L8.5,13Z" />
</symbol>

<symbol id="save" height="24" viewBox="0 0 24 24" width="24">
 <path fill="currentColor" d="M15,9H5V5H15M12,19A3,3 0 0,1 9,16A3,3 0 0,1 12,13A3,3 0 0,1 15,16A3,3 0 0,1 12,19M17,3H5C3.89,3 3,3.9 3,5V19A2,2 0 0,0 5,21H19A2,2 0 0,0 21,19V7L17,3Z" />
</symbol>

<symbol id="minus" height="24" viewBox="0 0 24 24" width="24">
<path fill="currentColor" d="M19,13H5V11H19V13Z" />
</symbol>

<symbol id="plus" height="24" viewBox="0 0 24 24" width="24">
<path fill="currentColor" d="M19,13H13V19H11V13H5V11H11V5H13V11H19V13Z" />
</symbol>

<symbol id="settings" height="24" viewBox="0 0 24 24" width="24">
<path fill="currentColor" d="M12,15.5A3.5,3.5 0 0,1 8.5,12A3.5,3.5 0 0,1 12,8.5A3.5,3.5 0 0,1 15.5,12A3.5,3.5 0 0,1 12,15.5M19.43,12.97C19.47,12.65 19.5,12.33 19.5,12C19.5,11.67 19.47,11.34 19.43,11L21.54,9.37C21.73,9.22 21.78,8.95 21.66,8.73L19.66,5.27C19.54,5.05 19.27,4.96 19.05,5.05L16.56,6.05C16.04,5.66 15.5,5.32 14.87,5.07L14.5,2.42C14.46,2.18 14.25,2 14,2H10C9.75,2 9.54,2.18 9.5,2.42L9.13,5.07C8.5,5.32 7.96,5.66 7.44,6.05L4.95,5.05C4.73,4.96 4.46,5.05 4.34,5.27L2.34,8.73C2.21,8.95 2.27,9.22 2.46,9.37L4.57,11C4.53,11.34 4.5,11.67 4.5,12C4.5,12.33 4.53,12.65 4.57,12.97L2.46,14.63C2.27,14.78 2.21,15.05 2.34,15.27L4.34,18.73C4.46,18.95 4.73,19.03 4.95,18.95L7.44,17.94C7.96,18.34 8.5,18.68 9.13,18.93L9.5,21.58C9.54,21.82 9.75,22 10,22H14C14.25,22 14.46,21.82 14.5,21.58L14.87,18.93C15.5,18.67 16.04,18.34 16.56,17.94L19.05,18.95C19.27,19.03 19.54,18.95 19.66,18.73L21.66,15.27C21.78,15.05 21.73,14.78 21.54,14.63L19.43,12.97Z" />
</symbol>

<symbol id="notification-success" height="24" viewBox="0 0 24 24" width="24">
<path fill="currentColor" d="M21,7L9,19L3.5,13.5L4.91,12.09L9,16.17L19.59,5.59L21,7Z" />
</symbol>

<symbol id="notification-info" height="24" viewBox="0 0 24 24" width="24">
<path fill="currentColor" d="M13,9H11V7H13M13,17H11V11H13M12,2A10,10 0 0,0 2,12A10,10 0 0,0 12,22A10,10 0 0,0 22,12A10,10 0 0,0 12,2Z" />
</symbol>

<symbol id="notification-error" height="24" viewBox="0 0 24 24" width="24">
<path fill="currentColor" d="M12 2C17.5 2 22 6.5 22 12S17.5 22 12 22 2 17.5 2 12 6.5 2 12 2M12 4C10.1 4 8.4 4.6 7.1 5.7L18.3 16.9C19.3 15.5 20 13.8 20 12C20 7.6 16.4 4 12 4M16.9 18.3L5.7 7.1C4.6 8.4 4 10.1 4 12C4 16.4 7.6 20 12 20C13.9 20 15.6 19.4 16.9 18.3Z" />
</symbol>

<symbol id="notification-warning" height="24" viewBox="0 0 24 24" width="24">
 <path fill="currentColor" d="M13 14H11V9H13M13 18H11V16H13M1 21H23L12 2L1 21Z" />
</symbol>

<symbol id="arrow-left" height="24" viewBox="0 0 24 24" width="24">
<path fill="currentColor" d="M20,11V13H8L13.5,18.5L12.08,19.92L4.16,12L12.08,4.08L13.5,5.5L8,11H20Z" />
</symbol>

<symbol id="arrow-right" height="24" viewBox="0 0 24 24" width="24">
<path fill="currentColor" d="M4,11V13H16L10.5,18.5L11.92,19.92L19.84,12L11.92,4.08L10.5,5.5L16,11H4Z" />
</symbol>

<symbol id="playlist-edit" height="24" viewBox="0 0 20 20" width="24">
<path fill="currentColor" d="M2,6V8H14V6H2M2,10V12H14V10H2M20.04,10.13C19.9,10.13 19.76,10.19 19.65,10.3L18.65,11.3L20.7,13.35L21.7,12.35C21.92,12.14 21.92,11.79 21.7,11.58L20.42,10.3C20.31,10.19 20.18,10.13 20.04,10.13M18.07,11.88L12,17.94V20H14.06L20.12,13.93L18.07,11.88M2,14V16H10V14H2Z" />
</symbol>

<symbol id="head-heart-outline" height="24" viewBox="0 0 24 24" width="24">
<path fill="currentColor" d="M13 3C16.88 3 20 6.14 20 10C20 12.8 18.37 15.19 16 16.31V21H9V18H8C6.89 18 6 17.11 6 16V13H4.5C4.08 13 3.84 12.5 4.08 12.19L6 9.66C6.19 5.95 9.23 3 13 3M13 1C8.41 1 4.61 4.42 4.06 8.9L2.5 11L2.47 11L2.45 11.03C1.9 11.79 1.83 12.79 2.26 13.62C2.62 14.31 3.26 14.79 4 14.94V16C4 17.85 5.28 19.42 7 19.87V23H18V17.5C20.5 15.83 22 13.06 22 10C22 5.03 17.96 1 13 1M17 8.83C17 10.37 15.64 11.6 13.58 13.47L13 14L12.42 13.47C10.36 11.6 9 10.37 9 8.83C9 7.63 9.96 6.64 11.16 6.63H11.2C11.89 6.63 12.55 6.94 13 7.46C13.45 6.94 14.11 6.63 14.8 6.63C16 6.62 17 7.59 17 8.79V8.83Z" />
</symbol>

</defs>
</svg>