<svg xmlns="http://www.w3.org/2000/svg">
<defs>

<symbol id="custom-clock" height="24" viewBox="0 0 24 24" width="24">
<path fill="currentColor" d="M11,6V14L7.5,10.5L6.08,11.92L12,17.84L17.92,11.92L16.5,10.5L13,14V6H11M12,22A10,10 0 0,1 2,12A10,10 0 0,1 12,2A10,10 0 0,1 22,12A10,10 0 0,1 12,22Z" />
</symbol>

<symbol id="amplifier" height="24" viewBox="0 0 24 24" width="24">
 <path fill="currentColor" d="M10,2H14A1,1 0 0,1 15,3H21V21H19A1,1 0 0,1 18,22A1,1 0 0,1 17,21H7A1,1 0 0,1 6,22A1,1 0 0,1 5,21H3V3H9A1,1 0 0,1 10,2M5,5V9H19V5H5M7,6A1,1 0 0,1 8,7A1,1 0 0,1 7,8A1,1 0 0,1 6,7A1,1 0 0,1 7,6M12,6H14V7H12V6M15,6H16V8H15V6M17,6H18V8H17V6M12,11A4,4 0 0,0 8,15A4,4 0 0,0 12,19A4,4 0 0,0 16,15A4,4 0 0,0 12,11M10,6A1,1 0 0,1 11,7A1,1 0 0,1 10,8A1,1 0 0,1 9,7A1,1 0 0,1 10,6Z" />
</symbol>

<symbol id="console-line" height="24" viewBox="0 0 24 24" width="24">
<!-- <path d="M0 0h24v24H0z" stroke-width="1" color="red"/> -->
<path fill="currentColor" d="M13,19V16H21V19H13M8.5,13L2.47,7H6.71L11.67,11.95C12.25,12.54 12.25,13.5 11.67,14.07L6.74,19H2.5L8.5,13Z" />
</symbol>

<symbol id="save" height="24" viewBox="0 0 24 24" width="24">
 <path fill="currentColor" d="M15,9H5V5H15M12,19A3,3 0 0,1 9,16A3,3 0 0,1 12,13A3,3 0 0,1 15,16A3,3 0 0,1 12,19M17,3H5C3.89,3 3,3.9 3,5V19A2,2 0 0,0 5,21H19A2,2 0 0,0 21,19V7L17,3Z" />
</symbol>

<symbol id="minus" height="24" viewBox="0 0 24 24" width="24">
<path fill="currentColor" d="M19,13H5V11H19V13Z" />
</symbol>

<symbol id="plus" height="24" viewBox="0 0 24 24" width="24">
<path fill="currentColor" d="M19,13H13V19H11V13H5V11H11V5H13V11H19V13Z" />
</symbol>

<symbol id="settings" height="24" viewBox="0 0 24 24" width="24">
<path fill="currentColor" d="M12,15.5A3.5,3.5 0 0,1 8.5,12A3.5,3.5 0 0,1 12,8.5A3.5,3.5 0 0,1 15.5,12A3.5,3.5 0 0,1 12,15.5M19.43,12.97C19.47,12.65 19.5,12.33 19.5,12C19.5,11.67 19.47,11.34 19.43,11L21.54,9.37C21.73,9.22 21.78,8.95 21.66,8.73L19.66,5.27C19.54,5.05 19.27,4.96 19.05,5.05L16.56,6.05C16.04,5.66 15.5,5.32 14.87,5.07L14.5,2.42C14.46,2.18 14.25,2 14,2H10C9.75,2 9.54,2.18 9.5,2.42L9.13,5.07C8.5,5.32 7.96,5.66 7.44,6.05L4.95,5.05C4.73,4.96 4.46,5.05 4.34,5.27L2.34,8.73C2.21,8.95 2.27,9.22 2.46,9.37L4.57,11C4.53,11.34 4.5,11.67 4.5,12C4.5,12.33 4.53,12.65 4.57,12.97L2.46,14.63C2.27,14.78 2.21,15.05 2.34,15.27L4.34,18.73C4.46,18.95 4.73,19.03 4.95,18.95L7.44,17.94C7.96,18.34 8.5,18.68 9.13,18.93L9.5,21.58C9.54,21.82 9.75,22 10,22H14C14.25,22 14.46,21.82 14.5,21.58L14.87,18.93C15.5,18.67 16.04,18.34 16.56,17.94L19.05,18.95C19.27,19.03 19.54,18.95 19.66,18.73L21.66,15.27C21.78,15.05 21.73,14.78 21.54,14.63L19.43,12.97Z" />
</symbol>

</defs>
</svg>